<svg xmlns='http://www.w3.org/2000/svg' class='ionicon' viewBox="0 0 118 118">
  <path fill-rule="evenodd" clip-rule="evenodd" d="M7.95 38.655c-10.6 10.6-10.6 27.784 0 38.383l30.705 30.706c10.6 10.599 27.784 10.599 38.383 0l30.706-30.706c10.599-10.6 10.599-27.784 0-38.383L77.038 7.95c-10.6-10.599-27.784-10.599-38.383 0L7.95 38.655zm63.33 32.626c7.42-7.42 7.42-19.449 0-26.868-7.419-7.42-19.448-7.42-26.867 0-7.42 7.42-7.42 19.448 0 26.868 7.42 7.419 19.448 7.419 26.868 0z" fill="#2962FF"></path>
</svg>
